PathFileType	4	(X/Y/Z)	Patient4_TMGait_0pt5_01_left_09.trc.trc
DataRate	CameraRate	NumFrames	NumMarkers	Units	OrigDataRate	OrigDataStartFrame	OrigNumFrames
76.502732240437	76.502732240437	4	33	mm	76.502732240437	124	       141
Frame#	Time	L.ASIS			Sacral			L.Shoulder			Chest			R.Shoulder			Neck			R.ASIS			R.Thigh.Superior			R.Thigh.Lateral			R.Thigh.Inferior			R.Patella			L.Thigh.Superior			L.Thigh.Lateral			L.Thigh.Inferior			L.Patella			L.Shank.Superior			L.Shank.Lateral			L.Shank.Inferior			R.Shank.Superior			R.Shank.Lateral			R.Shank.Inferior			R.Heel			R.Midfoot.Superior			R.Midfoot.Lateral			R.Toe			L.Heel			L.Midfoot.Lateral			L.Midfoot.Superior			L.Toe			L.Elbow			L.Wrist			R.Elbow			R.Wrist			
		X1	Y1	Z1	X2	Y2	Z2	X3	Y3	Z3	X4	Y4	Z4	X5	Y5	Z5	X6	Y6	Z6	X7	Y7	Z7	X8	Y8	Z8	X9	Y9	Z9	X10	Y10	Z10	X11	Y11	Z11	X12	Y12	Z12	X13	Y13	Z13	X14	Y14	Z14	X15	Y15	Z15	X16	Y16	Z16	X17	Y17	Z17	X18	Y18	Z18	X19	Y19	Z19	X20	Y20	Z20	X21	Y21	Z21	X22	Y22	Z22	X23	Y23	Z23	X24	Y24	Z24	X25	Y25	Z25	X26	Y26	Z26	X27	Y27	Z27	X28	Y28	Z28	X29	Y29	Z29	X30	Y30	Z30	X31	Y31	Z31	X32	Y32	Z32	X33	Y33	Z33	

124	13.707785714286	724.498500242663	952.837855609777	329.097347008316	536.825920886849	1004.873879187687	515.001386763070	689.212829859440	1425.739991366492	307.483645543463	814.617808079918	1353.398287715809	450.198848396936	762.818427218483	1430.452567910778	634.896011369411	714.418460212834	1487.873080313442	455.593576931618	771.799476742771	931.791185445822	599.996688653844	769.713500935387	719.559966332231	569.677653032527	672.091252015195	625.796471911234	637.020721234084	725.018596332356	561.495938114335	551.007926056370	705.252923670663	476.286573158084	555.539022046943	801.905311429452	766.240613225923	361.116120209347	745.777753851101	639.687349467326	290.940127250790	845.549128916129	579.497634821016	355.699115141510	870.970655556595	516.018256074009	354.800097304159	858.956231726158	444.448780889223	344.147274422318	800.276621458585	310.254808967755	296.645673543103	892.431886765551	217.964449492929	354.720561233780	666.787485408225	392.003564681908	563.948568648979	584.749574905963	298.335561413201	626.336540456526	609.718584446709	199.782062636428	561.402471732307	455.076212771781	43.978498030705	533.216143312279	626.975106472777	96.184999251114	569.340315688999	537.633865403312	36.470252817292	607.759222216977	745.936825661381	40.220079081845	600.276084323834	818.570076143927	36.089839650438	398.009427022101	891.204118630424	43.207870331407	316.811698195882	958.252459492521	123.097169209519	335.454548069370	1092.753971683093	99.254850038506	309.293221638550	560.690354216292	1086.694624038833	227.991562892937	547.571638853509	826.976982131471	247.413207558639	917.344679462176	1131.892942078933	742.305841425484	1152.528733268822	1187.382038491011	667.411045123374	
125	13.720857142857	726.323278015263	951.218406395069	327.642695797327	538.465844840220	1003.409717159491	513.136598745058	689.198230967998	1424.213363019483	304.923275771909	814.916897282731	1352.575618416397	447.709058557967	762.842950448570	1429.619049148861	632.340341244354	714.212790922832	1486.681337486488	452.942414879084	773.412744316811	930.788538494878	598.627464484407	769.607947499208	718.037588624279	568.930840417055	670.654745780155	625.026392795962	636.135605189225	723.233508410069	560.058549206718	550.465067053072	702.414027259982	474.934162854909	554.720743882797	803.894803989681	764.506075328977	359.301660890689	745.560661084543	637.469688234785	290.662754155134	846.325598171213	577.739660124586	353.785919255033	870.484843132068	513.414872194466	353.651707909686	858.186575957102	441.600186496082	343.435448754870	797.693958918920	308.007608963007	297.038506541022	889.076768262701	215.016223760541	354.951971329459	663.209165136617	391.102605563976	563.369473442091	580.347434643511	298.255019716970	626.054249817928	604.213192060509	199.380282393683	561.219855553739	448.464131526268	44.134438174005	533.355540897256	620.452037512185	96.154790387408	569.388267512397	531.081653079997	36.465851937992	607.822350061481	739.411905221281	40.044986913009	600.351460823287	812.367730465861	36.128312942590	399.231446543779	884.619874971184	41.396794742029	317.510502514307	954.076415220021	118.858419174080	336.219720159959	1087.580685931275	90.877567406631	309.185578872567	560.460604293784	1085.263905836850	226.327906007159	546.880279987202	825.530464367496	246.333665234992	919.488092084215	1132.090083701606	739.395475996133	1154.420594861852	1189.042446270727	664.613168606131	
126	13.733928571429	728.329339632430	949.717418485249	326.108197857948	540.150428151451	1002.044950949584	511.086175702609	689.218694942646	1422.715538142324	302.250999573096	815.271242816989	1351.832762802355	445.129691021461	762.900410766761	1428.886162055782	629.697825584727	714.024771271419	1485.569920969036	450.163043276733	775.122916638890	929.819306533520	597.194441573113	769.721225623924	716.581401350747	568.098595373997	669.445874835134	624.323605570660	635.118598622237	721.764508226934	558.677041413206	549.823490424390	699.920068002136	473.542762733829	553.793086870087	806.139164044269	762.995591749914	357.384722560049	745.713440171996	635.489510321910	290.271159214495	847.526494501259	576.210636297111	351.793127370303	870.354406270842	510.955738730551	352.439103912028	857.714593245544	438.864595564431	342.661853149701	795.279661730684	305.941978178810	297.217269749131	885.626426296841	212.056972568601	355.105593638206	659.892829553810	390.212243696524	562.707866585289	576.143672924519	298.276985584081	625.758612355561	598.828747538214	199.052020792803	561.050307877111	441.866858754741	44.461808006899	533.563566276435	614.006205171447	96.154215294164	569.486280793017	524.562112355169	36.526967801939	607.934141644831	732.935912595612	39.804233183710	600.434238110755	805.461113082890	36.261844245455	400.123087438430	877.534664670703	39.646850930166	318.038459020049	949.567222472993	114.510243760515	337.104534085034	1082.077088631494	82.074426913552	309.467577864178	560.740823862532	1083.652961002162	224.376953582242	547.127647670743	823.870204836147	244.717650983316	920.821045792381	1131.775575766832	736.493099916586	1155.837433987170	1189.501921042581	662.097314698534	
127	13.747000000000	730.439002638512	948.406911918257	324.465033881819	541.847696223896	1000.845338083682	508.879931083540	689.297119699018	1421.309564814646	299.498861837148	815.697803893476	1351.198365351309	442.480719879422	763.038114585419	1428.294635418123	626.989252107322	713.899933900134	1484.590755662630	447.287113873120	776.891511675884	928.920745677199	595.662468708718	770.061333766099	715.246721955387	567.131872924586	668.532751505819	623.710656628098	633.939174766140	720.684304679290	557.394161060988	549.041925699290	697.878493218438	472.117916905071	552.750951388418	808.486695226424	761.748685168521	355.407160140407	746.256830562537	633.847565501871	289.695704314603	849.057485567606	574.967727178133	349.800588828598	870.549073709490	508.763445124506	351.192463924046	857.546372712242	436.376680688240	341.817753506211	793.184806333669	304.145277717667	297.152836052388	882.296219050060	209.270607376593	355.172288796940	656.914554527215	389.348015716468	561.951958786984	572.197750537278	298.440094670702	625.438453570130	593.612803758417	198.832777935013	560.894728940239	435.302554865975	45.047015238703	533.848747161396	607.671603891916	96.199764645187	569.640633436137	518.088494421865	36.700560742115	608.099903512831	726.513269094890	39.498868222671	600.520586564922	798.343167292535	36.456072002937	400.711221218558	870.407824716800	38.082710987875	318.409269826393	944.966756826980	110.373573534795	338.059906840357	1076.533985651658	73.549542168651	310.075300598097	561.520024860409	1081.931971287825	222.164090404406	548.300259775133	822.065684700184	242.567357126767	921.373952226562	1130.963971200955	733.602302808129	1156.815993865393	1188.730155654344	659.856907855859	
